<svg fill="none" height="32" viewBox="0 0 80 20" width="130" xmlns="http://www.w3.org/2000/svg" data-automation="myer-logo"><g fill="#1f1f1f"><path d="m0 20.1768h80v-1.9225h-80z"></path><path d="m27.3863 8.23206v4.36564h7.265v-4.05943l6.4283-8.5380489h-4.6076l-3.6228 4.8180989-4.0778-4.8180989h-8.3446z"></path><path d="m58.8639-.00006103v2.60987103h-10.1813v2.38405h9.0866v2.60988h-9.0866v2.38405h10.1813v2.60991h-16.7858v-12.59776103z"></path><path d="m9.66574 12.5972h-3.73728l-4.21846-8.24891v8.24891h-1.71v-12.59774932h6.94338l2.90784 5.69893932 2.90758-5.69893932h6.8948v12.59774932h-6.3472v-8.24891z"></path><path d="m79.9348 3.60436c-.0227-2.49966-2.2014-3.60405851-4.9175-3.60405851h-13.3181v12.59689851h6.6122v-4.87635l3.9236 4.87635h7.6998l-4.3445-5.41037c2.4349-.17555 4.3644-1.43106 4.3445-3.58247zm-8.8601 1.0027h-2.771v-1.99689h2.771c.8447 0 1.5222.30593 1.5296.99845.0068.64395-.6849.99844-1.5296.99844z"></path></g></svg>